<svg width="33" height="32" viewBox="0 0 33 32" fill="none" xmlns="http://www.w3.org/2000/svg">
<path d="M6.86621 19.0484C4.39773 20.1374 2.86621 21.6549 2.86621 23.3333C2.86621 26.647 8.83575 29.3333 16.1995 29.3333C23.5633 29.3333 29.5329 26.647 29.5329 23.3333C29.5329 21.6549 28.0014 20.1374 25.5329 19.0484M24.1995 10.6666C24.1995 16.0849 18.1995 18.6666 16.1995 22.6666C14.1995 18.6666 8.19954 16.0849 8.19954 10.6666C8.19954 6.24835 11.7813 2.66663 16.1995 2.66663C20.6178 2.66663 24.1995 6.24835 24.1995 10.6666ZM17.5329 10.6666C17.5329 11.403 16.9359 12 16.1995 12C15.4632 12 14.8662 11.403 14.8662 10.6666C14.8662 9.93025 15.4632 9.33329 16.1995 9.33329C16.9359 9.33329 17.5329 9.93025 17.5329 10.6666Z" stroke="#A9A0A0" stroke-width="2" stroke-linecap="round" stroke-linejoin="round"/>
</svg>
