<svg width="36" height="35" viewBox="0 0 36 35" fill="none" xmlns="http://www.w3.org/2000/svg">
<g filter="url(#filter0_i_223_148)">
<path d="M9.09462 4.12329C7.87297 4.12329 6.70135 4.60859 5.83751 5.47243C4.97367 6.33627 4.48837 7.50789 4.48837 8.72954V22.8554C4.48837 24.077 4.97367 25.2486 5.83751 26.1125C6.70135 26.9763 7.87297 27.4616 9.09462 27.4616H23.2205C24.4421 27.4616 25.6137 26.9763 26.4776 26.1125C27.3414 25.2486 27.8267 24.077 27.8267 22.8554V8.72954C27.8267 7.50789 27.3414 6.33627 26.4776 5.47243C25.6137 4.60859 24.4421 4.12329 23.2205 4.12329H9.09462ZM11.7048 17.635H20.6102C21.8816 17.635 22.9134 18.5808 22.9134 19.7465C22.9134 21.3187 22.0756 22.5225 20.7884 23.2963C19.5367 24.0493 17.8846 24.3908 16.1575 24.3908C14.4305 24.3908 12.7784 24.0493 11.5267 23.2976C10.2394 22.5213 9.4017 21.32 9.4017 19.7452C9.4017 18.5795 10.4335 17.635 11.7048 17.635ZM19.8425 11.4933C19.8425 11.9772 19.7472 12.4564 19.562 12.9035C19.3768 13.3506 19.1054 13.7568 18.7632 14.099C18.421 14.4412 18.0148 14.7126 17.5677 14.8978C17.1206 15.083 16.6415 15.1783 16.1575 15.1783C15.6736 15.1783 15.1944 15.083 14.7473 14.8978C14.3003 14.7126 13.894 14.4412 13.5518 14.099C13.2097 13.7568 12.9382 13.3506 12.753 12.9035C12.5679 12.4564 12.4725 11.9772 12.4725 11.4933C12.4725 10.516 12.8608 9.57867 13.5518 8.8876C14.2429 8.19653 15.1802 7.80829 16.1575 7.80829C17.1349 7.80829 18.0722 8.19653 18.7632 8.8876C19.4543 9.57867 19.8425 10.516 19.8425 11.4933ZM12.1655 30.5325C11.4431 30.5325 10.7308 30.3626 10.0862 30.0366C9.44159 29.7105 8.88269 29.2375 8.45466 28.6556C8.6643 28.6785 8.87803 28.69 9.09585 28.69H23.8346C25.2192 28.69 26.547 28.1399 27.526 27.1609C28.505 26.1819 29.055 24.8541 29.055 23.4695V8.72954C29.055 8.51335 29.0436 8.30044 29.0206 8.09081C29.6024 8.51872 30.0754 9.07741 30.4014 9.7218C30.7274 10.3662 30.8974 11.0782 30.8975 11.8004V23.4695C30.8975 24.3971 30.7148 25.3155 30.3599 26.1724C30.005 27.0293 29.4847 27.8079 28.8289 28.4638C28.173 29.1196 27.3944 29.6399 26.5375 29.9948C25.6806 30.3498 24.7621 30.5325 23.8346 30.5325H12.1655Z" fill="#536AEE"/>
</g>
<defs>
<filter id="filter0_i_223_148" x="0.803375" y="-3.56177" width="34.3933" height="38.3933" filterUnits="userSpaceOnUse" color-interpolation-filters="sRGB">
<feFlood flood-opacity="0" result="BackgroundImageFix"/>
<feBlend mode="normal" in="SourceGraphic" in2="BackgroundImageFix" result="shape"/>
<feColorMatrix in="SourceAlpha" type="matrix" values="0 0 0 0 0 0 0 0 0 0 0 0 0 0 0 0 0 0 127 0" result="hardAlpha"/>
<feOffset dy="-4"/>
<feGaussianBlur stdDeviation="8"/>
<feComposite in2="hardAlpha" operator="arithmetic" k2="-1" k3="1"/>
<feColorMatrix type="matrix" values="0 0 0 0 1 0 0 0 0 1 0 0 0 0 1 0 0 0 0.2 0"/>
<feBlend mode="normal" in2="shape" result="effect1_innerShadow_223_148"/>
</filter>
</defs>
</svg>
