<svg width="33" height="32" viewBox="0 0 33 32" fill="none" xmlns="http://www.w3.org/2000/svg">
<path d="M24.7996 21.1158C26.7408 22.091 28.4051 23.6559 29.6199 25.6128C29.8605 26.0004 29.9808 26.1941 30.0223 26.4624C30.1069 27.0077 29.734 27.678 29.2262 27.8938C28.9763 28 28.6952 28 28.1329 28M22.1329 15.3763C24.1085 14.3945 25.4663 12.3558 25.4663 10C25.4663 7.64419 24.1085 5.60548 22.1329 4.62368M19.4663 10C19.4663 13.3137 16.78 16 13.4663 16C10.1525 16 7.46625 13.3137 7.46625 10C7.46625 6.68629 10.1525 4 13.4663 4C16.78 4 19.4663 6.68629 19.4663 10ZM4.21189 25.2511C6.33764 22.0594 9.69208 20 13.4663 20C17.2404 20 20.5949 22.0594 22.7206 25.2511C23.1863 25.9503 23.4191 26.2999 23.3923 26.7466C23.3715 27.0943 23.1435 27.52 22.8657 27.7301C22.5088 28 22.018 28 21.0364 28H5.89606C4.91448 28 4.42369 28 4.06684 27.7301C3.78898 27.52 3.56104 27.0943 3.54017 26.7466C3.51336 26.2999 3.7462 25.9503 4.21189 25.2511Z" stroke="#536AEE" stroke-width="2" stroke-linecap="round" stroke-linejoin="round"/>
</svg>
