<svg width="33" height="32" viewBox="0 0 33 32" fill="none" xmlns="http://www.w3.org/2000/svg">
<path d="M7.68833 25.9178C8.49943 24.0069 10.3932 22.6666 12.5999 22.6666H20.5999C22.8067 22.6666 24.7004 24.0069 25.5115 25.9178M21.9333 12.6666C21.9333 15.6121 19.5455 18 16.5999 18C13.6544 18 11.2666 15.6121 11.2666 12.6666C11.2666 9.72111 13.6544 7.33329 16.5999 7.33329C19.5455 7.33329 21.9333 9.72111 21.9333 12.6666ZM29.9333 16C29.9333 23.3638 23.9637 29.3333 16.5999 29.3333C9.23614 29.3333 3.2666 23.3638 3.2666 16C3.2666 8.63616 9.23614 2.66663 16.5999 2.66663C23.9637 2.66663 29.9333 8.63616 29.9333 16Z" stroke="#A9A0A0" stroke-width="2" stroke-linecap="round" stroke-linejoin="round"/>
</svg>
