<svg width="36" height="35" viewBox="0 0 36 35" fill="none" xmlns="http://www.w3.org/2000/svg">
<g filter="url(#filter0_i_223_151)">
<path d="M16.7928 10.2647C16.7928 11.5678 16.2742 12.8175 15.3512 13.7389C14.4282 14.6603 13.1763 15.1779 11.871 15.1779C10.5657 15.1779 9.31381 14.6603 8.39081 13.7389C7.4678 12.8175 6.94925 11.5678 6.94925 10.2647C6.94925 8.96167 7.4678 7.71199 8.39081 6.79059C9.31381 5.8692 10.5657 5.35156 11.871 5.35156C13.1763 5.35156 14.4282 5.8692 15.3512 6.79059C16.2742 7.71199 16.7928 8.96167 16.7928 10.2647ZM26.6363 11.493C26.6363 12.4703 26.2474 13.4076 25.5551 14.0986C24.8629 14.7897 23.924 15.1779 22.945 15.1779C21.966 15.1779 21.0271 14.7897 20.3348 14.0986C19.6426 13.4076 19.2537 12.4703 19.2537 11.493C19.2537 10.5157 19.6426 9.57846 20.3348 8.88742C21.0271 8.19637 21.966 7.80814 22.945 7.80814C23.924 7.80814 24.8629 8.19637 25.5551 8.88742C26.2474 9.57846 26.6363 10.5157 26.6363 11.493ZM4.48837 20.3981C4.48837 19.6652 4.78005 18.9622 5.29925 18.4439C5.81844 17.9256 6.52261 17.6345 7.25686 17.6345H16.4852C17.2194 17.6345 17.9236 17.9256 18.4428 18.4439C18.962 18.9622 19.2537 19.6652 19.2537 20.3981V20.5283L17.3969 22.3818C16.8162 22.9624 16.4038 23.689 16.2034 24.4846L15.961 25.455C14.9459 25.923 13.6146 26.2325 11.871 26.2325C4.48837 26.2325 4.48837 20.7052 4.48837 20.7052V20.3981ZM25.5289 16.0008L18.2656 23.2502C17.8431 23.6733 17.543 24.2025 17.3969 24.7819L16.8334 27.0309C16.7773 27.2547 16.7803 27.4891 16.842 27.7114C16.9038 27.9336 17.0221 28.1362 17.1855 28.2992C17.349 28.4622 17.552 28.5802 17.7747 28.6417C17.9974 28.7031 18.2322 28.7059 18.4563 28.6498L20.708 28.0884C21.289 27.9425 21.8196 27.6424 22.2436 27.22L29.5057 19.9707C30.0128 19.4401 30.2918 18.7326 30.2832 17.9994C30.2745 17.2662 29.9789 16.5654 29.4595 16.0469C28.9401 15.5284 28.2381 15.2333 27.5036 15.2247C26.7691 15.2161 26.0604 15.4947 25.5289 16.0008Z" fill="#536AEE"/>
</g>
<defs>
<filter id="filter0_i_223_151" x="0.803375" y="-3.56177" width="34.3933" height="38.3933" filterUnits="userSpaceOnUse" color-interpolation-filters="sRGB">
<feFlood flood-opacity="0" result="BackgroundImageFix"/>
<feBlend mode="normal" in="SourceGraphic" in2="BackgroundImageFix" result="shape"/>
<feColorMatrix in="SourceAlpha" type="matrix" values="0 0 0 0 0 0 0 0 0 0 0 0 0 0 0 0 0 0 127 0" result="hardAlpha"/>
<feOffset dy="-4"/>
<feGaussianBlur stdDeviation="8"/>
<feComposite in2="hardAlpha" operator="arithmetic" k2="-1" k3="1"/>
<feColorMatrix type="matrix" values="0 0 0 0 1 0 0 0 0 1 0 0 0 0 1 0 0 0 0.2 0"/>
<feBlend mode="normal" in2="shape" result="effect1_innerShadow_223_151"/>
</filter>
</defs>
</svg>
