<svg width="35" height="35" viewBox="0 0 35 35" fill="none" xmlns="http://www.w3.org/2000/svg">
<path d="M8.86455 3.68506C7.6429 3.68506 6.47128 4.17036 5.60744 5.0342C4.7436 5.89804 4.2583 7.06965 4.2583 8.29131V22.4171C4.2583 23.6388 4.7436 24.8104 5.60744 25.6742C6.47128 26.5381 7.6429 27.0234 8.86455 27.0234H22.9904C24.212 27.0234 25.3837 26.5381 26.2475 25.6742C27.1113 24.8104 27.5966 23.6388 27.5966 22.4171V8.29131C27.5966 7.06965 27.1113 5.89804 26.2475 5.0342C25.3837 4.17036 24.212 3.68506 22.9904 3.68506H8.86455ZM11.4748 17.1967H20.3802C21.6515 17.1967 22.6833 18.1425 22.6833 19.3082C22.6833 20.8805 21.8456 22.0843 20.5583 22.8581C19.3066 23.6111 17.6545 23.9526 15.9275 23.9526C14.2004 23.9526 12.5483 23.6111 11.2966 22.8593C10.0094 22.083 9.17163 20.8817 9.17163 19.307C9.17163 18.1413 10.2034 17.1967 11.4748 17.1967ZM19.6125 11.0551C19.6125 11.539 19.5171 12.0182 19.332 12.4652C19.1468 12.9123 18.8753 13.3186 18.5332 13.6607C18.191 14.0029 17.7847 14.2744 17.3377 14.4596C16.8906 14.6447 16.4114 14.7401 15.9275 14.7401C15.4435 14.7401 14.9644 14.6447 14.5173 14.4596C14.0702 14.2744 13.664 14.0029 13.3218 13.6607C12.9796 13.3186 12.7082 12.9123 12.523 12.4652C12.3378 12.0182 12.2425 11.539 12.2425 11.0551C12.2425 10.0777 12.6307 9.14044 13.3218 8.44937C14.0128 7.7583 14.9501 7.37006 15.9275 7.37006C16.9048 7.37006 17.8421 7.7583 18.5332 8.44937C19.2242 9.14044 19.6125 10.0777 19.6125 11.0551ZM11.9354 30.0942C11.213 30.0943 10.5007 29.9244 9.85613 29.5984C9.21152 29.2723 8.65262 28.7992 8.22459 28.2173C8.43422 28.2403 8.64795 28.2517 8.86578 28.2517H23.6045C24.9891 28.2517 26.3169 27.7017 27.2959 26.7227C28.275 25.7437 28.825 24.4158 28.825 23.0313V8.29131C28.825 8.07512 28.8135 7.86221 28.7906 7.65257C29.3723 8.08048 29.8453 8.63918 30.1713 9.28357C30.4974 9.92795 30.6673 10.64 30.6675 11.3621V23.0313C30.6675 23.9588 30.4848 24.8773 30.1298 25.7342C29.7749 26.5911 29.2546 27.3697 28.5988 28.0255C27.9429 28.6814 27.1643 29.2016 26.3074 29.5566C25.4505 29.9115 24.5321 30.0942 23.6045 30.0942H11.9354Z" fill="#4B527F"/>
</svg>
