<svg width="35" height="35" viewBox="0 0 35 35" fill="none" xmlns="http://www.w3.org/2000/svg">
<path d="M10.5883 11.77C10.8313 12.4839 11.1704 13.2308 11.5851 13.9975V25.1809L5.10758 28.1965C4.61457 28.3978 4.07837 28.0259 4.07837 27.4828V15.4718C4.07855 15.1652 4.16825 14.8656 4.33627 14.6117C4.50452 14.3576 4.74383 14.1607 5.02241 14.0467L10.5883 11.77Z" fill="#4B527F"/>
<path d="M22.0943 28.2517L13.0857 25.1809V16.4482C13.9733 17.7483 14.9548 19.0153 15.8771 20.1284C16.3054 20.6457 16.9299 20.9429 17.59 20.9429C18.2501 20.9429 18.8746 20.6463 19.303 20.1296C20.2258 19.0164 21.2067 17.748 22.0943 16.4482V28.2517Z" fill="#4B527F"/>
<path d="M30.0725 11.4173C30.5655 11.216 31.1017 11.588 31.1017 12.131V24.1421C31.1016 24.4487 31.0118 24.7483 30.8438 25.0022C30.6755 25.2563 30.4363 25.4532 30.1577 25.5671L23.5949 28.2517V14.433L30.0725 11.4173Z" fill="#4B527F"/>
<path fill-rule="evenodd" clip-rule="evenodd" d="M17.59 3.68506C20.8549 3.68506 23.5014 6.39171 23.5014 9.73076C23.5014 12.4302 19.6376 17.3505 18.1574 19.1364C17.8581 19.4978 17.3224 19.4978 17.0226 19.1364C15.5425 17.3505 11.6787 12.4302 11.6787 9.73076C11.6787 6.39171 14.3252 3.68506 17.59 3.68506ZM17.59 7.37006C16.2333 7.37006 15.1334 8.46994 15.1334 9.82672C15.1334 11.1835 16.2333 12.2834 17.59 12.2834C18.9468 12.2834 20.0467 11.1835 20.0467 9.82672C20.0467 8.46994 18.9468 7.37006 17.59 7.37006Z" fill="#4B527F"/>
</svg>
