<svg width="33" height="32" viewBox="0 0 33 32" fill="none" xmlns="http://www.w3.org/2000/svg">
<path d="M11.0666 22.6666H21.7332M15.0902 3.68533L6.04709 10.7188C5.4426 11.189 5.14035 11.4241 4.92261 11.7185C4.72972 11.9793 4.58604 12.273 4.49861 12.5854C4.3999 12.938 4.3999 13.3209 4.3999 14.0867V23.7333C4.3999 25.2268 4.3999 25.9735 4.69055 26.544C4.94621 27.0457 5.35416 27.4537 5.85593 27.7093C6.42636 28 7.1731 28 8.66657 28H24.1332C25.6267 28 26.3734 28 26.9439 27.7093C27.4456 27.4537 27.8536 27.0457 28.1093 26.544C28.3999 25.9735 28.3999 25.2268 28.3999 23.7333V14.0867C28.3999 13.3209 28.3999 12.938 28.3012 12.5854C28.2138 12.273 28.0701 11.9793 27.8772 11.7185C27.6595 11.4241 27.3572 11.189 26.7527 10.7188L17.7096 3.68533C17.2412 3.32099 17.007 3.13883 16.7484 3.0688C16.5202 3.00701 16.2796 3.00701 16.0514 3.0688C15.7928 3.13883 15.5586 3.32099 15.0902 3.68533Z" stroke="#BDB4B4" stroke-width="2.67" stroke-linecap="round" stroke-linejoin="round"/>
</svg>
