<svg width="452" height="199" viewBox="0 0 452 199" fill="none" xmlns="http://www.w3.org/2000/svg">
<g filter="url(#filter0_d_1982_2688)">
<path d="M338.3 146.063C311.057 106.568 306 102.515 306 88C306 68.1177 322.118 52 342 52C361.882 52 378 68.1177 378 88C378 102.515 372.943 106.568 345.7 146.063C343.912 148.646 340.088 148.646 338.3 146.063Z" fill="#FFE291"/>
<path d="M323.455 105.022H363.179V65.298H323.455V105.022Z" fill="#1D1D1D"/>
</g>
<g filter="url(#filter1_d_1982_2688)">
<path d="M220.446 152.462C180.633 94.745 173.243 88.8215 173.243 67.6096C173.243 38.5541 196.797 15 225.853 15C254.908 15 278.462 38.5541 278.462 67.6096C278.462 88.8215 271.072 94.745 231.259 152.462C228.647 156.236 223.058 156.236 220.446 152.462Z" fill="#E85659"/>
<path d="M198.751 94.4143H256.803V36.3623H198.751V94.4143Z" fill="#1D1D1D"/>
</g>
<g filter="url(#filter2_d_1982_2688)">
<path d="M417.611 178.933C399.383 152.509 396 149.797 396 140.086C396 126.784 406.784 116 420.086 116C433.388 116 444.172 126.784 444.172 140.086C444.172 149.797 440.789 152.509 422.561 178.933C421.365 180.661 418.807 180.661 417.611 178.933Z" fill="#4EBC00"/>
<path d="M407.678 151.72H434.256V125.142H407.678V151.72Z" fill="#1D1D1D"/>
</g>
<g filter="url(#filter3_d_1982_2688)">
<path d="M32.8401 185.514C13.5758 157.586 10 154.72 10 144.456C10 130.397 21.3971 119 35.4563 119C49.5154 119 60.9126 130.397 60.9126 144.456C60.9126 154.72 57.3367 157.586 38.0724 185.514C36.8082 187.34 34.1042 187.34 32.8401 185.514Z" fill="#EC9420"/>
<path d="M22.3424 156.329H50.4321V128.24H22.3424V156.329Z" fill="#1D1D1D"/>
</g>
<g filter="url(#filter4_d_1982_2688)">
<path d="M111.49 143.879C86.6169 107.821 82 104.12 82 90.8678C82 72.7154 96.7154 58 114.868 58C133.02 58 147.736 72.7154 147.736 90.8678C147.736 104.12 143.119 107.821 118.246 143.879C116.613 146.237 113.122 146.237 111.49 143.879Z" fill="#5DD387"/>
<path d="M97.9359 107.628H134.204V71.3602H97.9359V107.628Z" fill="#1D1D1D"/>
</g>
<defs>
<filter id="filter0_d_1982_2688" x="292.759" y="42.069" width="98.4828" height="122.483" filterUnits="userSpaceOnUse" color-interpolation-filters="sRGB">
<feFlood flood-opacity="0" result="BackgroundImageFix"/>
<feColorMatrix in="SourceAlpha" type="matrix" values="0 0 0 0 0 0 0 0 0 0 0 0 0 0 0 0 0 0 127 0" result="hardAlpha"/>
<feOffset dy="3.31034"/>
<feGaussianBlur stdDeviation="6.62069"/>
<feComposite in2="hardAlpha" operator="out"/>
<feColorMatrix type="matrix" values="0 0 0 0 0 0 0 0 0 0 0 0 0 0 0 0 0 0 0.25 0"/>
<feBlend mode="normal" in2="BackgroundImageFix" result="effect1_dropShadow_1982_2688"/>
<feBlend mode="normal" in="SourceGraphic" in2="effect1_dropShadow_1982_2688" result="shape"/>
</filter>
<filter id="filter1_d_1982_2688" x="153.892" y="0.486996" width="143.921" height="178.994" filterUnits="userSpaceOnUse" color-interpolation-filters="sRGB">
<feFlood flood-opacity="0" result="BackgroundImageFix"/>
<feColorMatrix in="SourceAlpha" type="matrix" values="0 0 0 0 0 0 0 0 0 0 0 0 0 0 0 0 0 0 127 0" result="hardAlpha"/>
<feOffset dy="4.83767"/>
<feGaussianBlur stdDeviation="9.67534"/>
<feComposite in2="hardAlpha" operator="out"/>
<feColorMatrix type="matrix" values="0 0 0 0 0 0 0 0 0 0 0 0 0 0 0 0 0 0 0.25 0"/>
<feBlend mode="normal" in2="BackgroundImageFix" result="effect1_dropShadow_1982_2688"/>
<feBlend mode="normal" in="SourceGraphic" in2="effect1_dropShadow_1982_2688" result="shape"/>
</filter>
<filter id="filter2_d_1982_2688" x="393.353" y="113.503" width="58.1593" height="74.2166" filterUnits="userSpaceOnUse" color-interpolation-filters="sRGB">
<feFlood flood-opacity="0" result="BackgroundImageFix"/>
<feColorMatrix in="SourceAlpha" type="matrix" values="0 0 0 0 0 0 0 0 0 0 0 0 0 0 0 0 0 0 127 0" result="hardAlpha"/>
<feOffset dx="2.34705" dy="2.49686"/>
<feGaussianBlur stdDeviation="2.49686"/>
<feComposite in2="hardAlpha" operator="out"/>
<feColorMatrix type="matrix" values="0 0 0 0 0 0 0 0 0 0 0 0 0 0 0 0 0 0 0.25 0"/>
<feBlend mode="normal" in2="BackgroundImageFix" result="effect1_dropShadow_1982_2688"/>
<feBlend mode="normal" in="SourceGraphic" in2="effect1_dropShadow_1982_2688" result="shape"/>
</filter>
<filter id="filter3_d_1982_2688" x="0.636771" y="111.978" width="69.6391" height="86.6099" filterUnits="userSpaceOnUse" color-interpolation-filters="sRGB">
<feFlood flood-opacity="0" result="BackgroundImageFix"/>
<feColorMatrix in="SourceAlpha" type="matrix" values="0 0 0 0 0 0 0 0 0 0 0 0 0 0 0 0 0 0 127 0" result="hardAlpha"/>
<feOffset dy="2.34081"/>
<feGaussianBlur stdDeviation="4.68161"/>
<feComposite in2="hardAlpha" operator="out"/>
<feColorMatrix type="matrix" values="0 0 0 0 0 0 0 0 0 0 0 0 0 0 0 0 0 0 0.25 0"/>
<feBlend mode="normal" in2="BackgroundImageFix" result="effect1_dropShadow_1982_2688"/>
<feBlend mode="normal" in="SourceGraphic" in2="effect1_dropShadow_1982_2688" result="shape"/>
</filter>
<filter id="filter4_d_1982_2688" x="69.9107" y="48.933" width="89.9142" height="111.826" filterUnits="userSpaceOnUse" color-interpolation-filters="sRGB">
<feFlood flood-opacity="0" result="BackgroundImageFix"/>
<feColorMatrix in="SourceAlpha" type="matrix" values="0 0 0 0 0 0 0 0 0 0 0 0 0 0 0 0 0 0 127 0" result="hardAlpha"/>
<feOffset dy="3.02233"/>
<feGaussianBlur stdDeviation="6.04466"/>
<feComposite in2="hardAlpha" operator="out"/>
<feColorMatrix type="matrix" values="0 0 0 0 0 0 0 0 0 0 0 0 0 0 0 0 0 0 0.25 0"/>
<feBlend mode="normal" in2="BackgroundImageFix" result="effect1_dropShadow_1982_2688"/>
<feBlend mode="normal" in="SourceGraphic" in2="effect1_dropShadow_1982_2688" result="shape"/>
</filter>
</defs>
</svg>
