<svg width="35" height="35" viewBox="0 0 35 35" fill="none" xmlns="http://www.w3.org/2000/svg">
<path d="M16.1694 9.82649C16.1694 11.1295 15.6509 12.3792 14.7278 13.3006C13.8048 14.222 12.553 14.7397 11.2476 14.7397C9.9423 14.7397 8.69043 14.222 7.76742 13.3006C6.84441 12.3792 6.32587 11.1295 6.32587 9.82649C6.32587 8.52344 6.84441 7.27376 7.76742 6.35236C8.69043 5.43097 9.9423 4.91333 11.2476 4.91333C12.553 4.91333 13.8048 5.43097 14.7278 6.35236C15.6509 7.27376 16.1694 8.52344 16.1694 9.82649ZM26.0129 11.0548C26.0129 12.0321 25.624 12.9693 24.9318 13.6604C24.2395 14.3514 23.3006 14.7397 22.3216 14.7397C21.3426 14.7397 20.4037 14.3514 19.7114 13.6604C19.0192 12.9693 18.6303 12.0321 18.6303 11.0548C18.6303 10.0775 19.0192 9.14023 19.7114 8.44918C20.4037 7.75814 21.3426 7.36991 22.3216 7.36991C23.3006 7.36991 24.2395 7.75814 24.9318 8.44918C25.624 9.14023 26.0129 10.0775 26.0129 11.0548ZM3.86499 19.9599C3.86499 19.2269 4.15667 18.524 4.67586 18.0057C5.19506 17.4874 5.89923 17.1962 6.63348 17.1962H15.8618C16.596 17.1962 17.3002 17.4874 17.8194 18.0057C18.3386 18.524 18.6303 19.2269 18.6303 19.9599V20.0901L16.7735 21.9436C16.1929 22.5241 15.7804 23.2508 15.58 24.0464L15.3376 25.0168C14.3225 25.4847 12.9912 25.7943 11.2476 25.7943C3.86499 25.7943 3.86499 20.267 3.86499 20.267V19.9599ZM24.9055 15.5626L17.6422 22.812C17.2198 23.2351 16.9196 23.7643 16.7735 24.3437L16.21 26.5927C16.154 26.8164 16.1569 27.0509 16.2187 27.2731C16.2804 27.4954 16.3987 27.6979 16.5622 27.861C16.7256 28.024 16.9286 28.142 17.1513 28.2034C17.374 28.2649 17.6088 28.2677 17.833 28.2115L20.0847 27.6502C20.6656 27.5042 21.1962 27.2042 21.6203 26.7818L28.8823 19.5324C29.3894 19.0019 29.6684 18.2944 29.6598 17.5612C29.6512 16.828 29.3555 16.1272 28.8361 15.6087C28.3167 15.0902 27.6147 14.7951 26.8802 14.7865C26.1457 14.7779 25.437 15.0564 24.9055 15.5626Z" fill="#4B527F"/>
</svg>
