<svg width="36" height="35" viewBox="0 0 36 35" fill="none" xmlns="http://www.w3.org/2000/svg">
<path d="M22.0512 10.6351C21.5973 10.0467 20.9796 9.60696 20.2764 9.37158L18.4608 8.77883C18.3214 8.729 18.2008 8.63708 18.1155 8.51567C18.0302 8.39426 17.9844 8.24932 17.9844 8.10074C17.9844 7.95216 18.0302 7.80722 18.1155 7.68581C18.2008 7.5644 18.3214 7.47247 18.4608 7.42265L20.2764 6.8299C20.8137 6.64359 21.3017 6.33681 21.7032 5.93287C22.1048 5.52892 22.4095 5.03842 22.5941 4.49859L22.6086 4.4536L23.1989 2.63168C23.2479 2.49079 23.3394 2.3687 23.4606 2.28232C23.5819 2.19594 23.7268 2.14954 23.8755 2.14954C24.0241 2.14954 24.1691 2.19594 24.2903 2.28232C24.4115 2.3687 24.503 2.49079 24.552 2.63168L25.141 4.4536C25.3251 5.00738 25.6352 5.51045 26.0466 5.92293C26.4581 6.33541 26.9596 6.64594 27.5114 6.8299L29.3257 7.42265L29.3626 7.43191C29.502 7.48174 29.6226 7.57366 29.7079 7.69507C29.7932 7.81648 29.839 7.96142 29.839 8.11C29.839 8.25858 29.7932 8.40352 29.7079 8.52493C29.6226 8.64634 29.502 8.73827 29.3626 8.78809L27.547 9.38084C26.9954 9.56497 26.4942 9.87558 26.083 10.2881C25.6718 10.7005 25.3619 11.2035 25.1779 11.7571L24.5876 13.5791L24.5705 13.624C24.5136 13.7572 24.4179 13.87 24.2961 13.9476C24.1743 14.0253 24.032 14.0643 23.8878 14.0594C23.7436 14.0546 23.6042 14.0061 23.4879 13.9204C23.3715 13.8347 23.2837 13.7157 23.2358 13.5791L22.6455 11.7571C22.5136 11.3517 22.3131 10.9721 22.0526 10.6351M32.1915 15.6643L31.1822 15.3361C30.876 15.2333 30.5977 15.0604 30.3695 14.831C30.1413 14.6016 29.9693 14.322 29.8672 14.0144L29.5378 13.0035C29.5106 12.9254 29.4598 12.8576 29.3925 12.8097C29.3252 12.7618 29.2448 12.7361 29.1623 12.7361C29.0799 12.7361 28.9994 12.7618 28.9322 12.8097C28.8649 12.8576 28.8141 12.9254 28.7868 13.0035L28.46 14.0144C28.3598 14.32 28.1907 14.5983 27.9658 14.8276C27.7409 15.0569 27.4664 15.2309 27.1635 15.3361L26.1556 15.6643C26.0777 15.6917 26.0103 15.7427 25.9626 15.8102C25.9149 15.8778 25.8893 15.9585 25.8893 16.0414C25.8893 16.1242 25.9149 16.2049 25.9626 16.2725C26.0103 16.34 26.0777 16.391 26.1556 16.4184L27.1635 16.7479C27.4707 16.8508 27.7497 17.0242 27.9785 17.2543C28.2072 17.4844 28.3793 17.765 28.4811 18.0736L28.8079 19.0845C28.8352 19.1626 28.886 19.2304 28.9532 19.2783C29.0205 19.3262 29.1009 19.3519 29.1834 19.3519C29.2659 19.3519 29.3463 19.3262 29.4136 19.2783C29.4809 19.2304 29.5316 19.1626 29.5589 19.0845L29.887 18.0736C29.9892 17.7659 30.1614 17.4862 30.3898 17.2568C30.6183 17.0274 30.8968 16.8545 31.2033 16.7519L32.2113 16.4237C32.2891 16.3963 32.3565 16.3453 32.4042 16.2778C32.4519 16.2102 32.4775 16.1295 32.4775 16.0466C32.4775 15.9638 32.4519 15.8831 32.4042 15.8155C32.3565 15.748 32.2891 15.697 32.2113 15.6696L32.1915 15.6643ZM16.6649 4.79893C17.9258 4.79893 19.1459 4.97623 20.3015 5.30833C19.961 5.51735 19.4081 5.71877 19.0699 5.93287C18.7317 6.14697 17.2091 6.78226 16.6649 6.78226C14.5124 6.69689 12.825 7.24597 10.9703 8.34626C9.11563 9.44655 7.61627 11.0606 6.652 12.995C5.68773 14.9294 5.29947 17.102 5.53376 19.2523C5.76805 21.4027 6.61495 23.4396 7.97293 25.1188C9.33092 26.798 11.1424 28.0484 13.1901 28.7199C15.2379 29.3914 17.4351 29.4557 19.5183 28.905C21.6015 28.3542 23.4823 27.2119 24.9353 25.6148C26.3883 24.0178 27.506 21.8156 27.8645 19.6825C28.1939 20.3441 28.4811 20.6868 29.1294 20.741C29.2919 20.7401 29.4403 20.7221 29.5747 20.6868C28.3494 26.7201 23.0355 31.261 16.6649 31.261C9.38779 31.261 3.48889 25.3375 3.48889 18.03C3.48889 10.7225 9.38779 4.79893 16.6649 4.79893Z" fill="#4B527F"/>
<path d="M16.6649 12.7362C17.1742 12.7363 17.5872 13.1509 17.5872 13.6624V17.1025H21.013C21.5223 17.1025 21.9353 17.5172 21.9353 18.0287C21.9353 18.5401 21.5223 18.9548 21.013 18.9548H17.5872V22.3949C17.5872 22.9064 17.1742 23.321 16.6649 23.3211C16.1556 23.3209 15.7426 22.9063 15.7426 22.3949V18.9548H12.3168C11.8075 18.9547 11.3945 18.5401 11.3945 18.0287C11.3945 17.5173 11.8076 17.1026 12.3168 17.1025H15.7426V13.6624C15.7426 13.151 16.1556 12.7364 16.6649 12.7362Z" fill="#4B527F"/>
</svg>
