<svg width="52" height="52" viewBox="0 0 52 52" fill="none" xmlns="http://www.w3.org/2000/svg">
<g filter="url(#filter0_d_1317_6293)">
<circle cx="18.9998" cy="31.3333" r="15.5" stroke="white" stroke-dasharray="2 2" shape-rendering="crispEdges"/>
</g>
<g filter="url(#filter1_d_1317_6293)">
<mask id="path-2-inside-1_1317_6293" fill="white">
<path d="M35.0005 1.99976C42.7323 2.00002 49.0005 8.26793 49.0005 15.9998C49.0005 23.0653 43.7657 28.9073 36.9634 29.8621C36.424 21.2153 29.7813 14.2219 21.2915 13.1433C22.6104 6.78117 28.2474 1.99976 35.0005 1.99976Z"/>
</mask>
<path d="M35.0005 1.99976L35.0005 1.49976H35.0005V1.99976ZM36.9634 29.8621L36.4643 29.8932L36.498 30.4323L37.0329 30.3572L36.9634 29.8621ZM21.2915 13.1433L20.8019 13.0418L20.6922 13.5712L21.2285 13.6393L21.2915 13.1433ZM35.0005 1.99976V1.49976C34.668 1.49976 34.338 1.51096 34.0109 1.53301L34.0446 2.03188L34.0782 2.53074C34.3829 2.5102 34.6904 2.49976 35.0005 2.49976V1.99976ZM32.1519 2.28974L32.0507 1.80009C31.3984 1.93492 30.7621 2.11356 30.145 2.3328L30.3124 2.80395L30.4797 3.2751C31.054 3.0711 31.6461 2.90487 32.2531 2.77939L32.1519 2.28974ZM28.5606 3.56547L28.3303 3.12166C27.7423 3.42682 27.1778 3.77103 26.6404 4.15085L26.929 4.55917L27.2175 4.96748C27.718 4.61379 28.2435 4.29332 28.7909 4.00927L28.5606 3.56547ZM25.4474 5.76513L25.1062 5.39967C24.624 5.84995 24.1725 6.33276 23.7552 6.8446L24.1428 7.16052L24.5303 7.47644C24.9189 6.99971 25.3395 6.55001 25.7887 6.13059L25.4474 5.76513ZM23.0392 8.71991L22.6123 8.45953C22.27 9.02073 21.9647 9.60707 21.6999 10.2152L22.1583 10.4148L22.6167 10.6145C22.8631 10.0486 23.1473 9.50278 23.466 8.98028L23.0392 8.71991ZM21.5177 12.2143L21.0362 12.0794C20.9475 12.396 20.8693 12.7169 20.8019 13.0418L21.2915 13.1433L21.7811 13.2448C21.8438 12.9424 21.9166 12.6438 21.9991 12.3492L21.5177 12.2143ZM21.2915 13.1433L21.2285 13.6393C21.5631 13.6818 21.8947 13.7338 22.2231 13.7949L22.3146 13.3034L22.4061 12.8118C22.0588 12.7472 21.7082 12.6922 21.3545 12.6473L21.2915 13.1433ZM24.323 13.7989L24.1753 14.2766C24.82 14.4759 25.4487 14.7115 26.0592 14.981L26.2611 14.5236L26.463 14.0661C25.8175 13.7812 25.1525 13.532 24.4706 13.3212L24.323 13.7989ZM28.1024 15.4669L27.8491 15.898C28.429 16.2386 28.9875 16.6117 29.5222 17.0148L29.8232 16.6155L30.1241 16.2162C29.559 15.7902 28.9686 15.3959 28.3556 15.0358L28.1024 15.4669ZM31.4014 17.9534L31.0568 18.3157C31.5429 18.7781 32.0025 19.2681 32.433 19.7832L32.8167 19.4626L33.2003 19.142C32.7454 18.5976 32.2597 18.0797 31.746 17.5911L31.4014 17.9534ZM34.0504 21.1236L33.6326 21.3982C34.0001 21.9573 34.3364 22.5386 34.639 23.1397L35.0856 22.9149L35.5322 22.6901C35.2122 22.0545 34.8567 21.4399 34.4682 20.8489L34.0504 21.1236ZM35.9076 24.8133L35.4381 24.9852C35.6671 25.6111 35.8614 26.2537 36.0186 26.9108L36.5049 26.7945L36.9912 26.6781C36.8249 25.9832 36.6194 25.3035 36.3772 24.6415L35.9076 24.8133ZM36.8694 28.8307L36.373 28.8904C36.4128 29.2218 36.4433 29.5562 36.4643 29.8932L36.9634 29.8621L37.4624 29.8309C37.4402 29.4749 37.4079 29.1215 37.3658 28.7711L36.8694 28.8307ZM36.9634 29.8621L37.0329 30.3572C37.3774 30.3089 37.718 30.2484 38.0544 30.1763L37.9495 29.6874L37.8447 29.1985C37.5317 29.2656 37.2146 29.3219 36.8939 29.3669L36.9634 29.8621ZM39.8702 29.1283L40.0442 29.5971C40.6963 29.3551 41.3263 29.0676 41.9302 28.7385L41.6909 28.2995L41.4516 27.8604C40.8895 28.1668 40.3032 28.4344 39.6963 28.6595L39.8702 29.1283ZM43.3747 27.219L43.6741 27.6194C44.2284 27.2051 44.7521 26.752 45.2411 26.2643L44.888 25.9103L44.5349 25.5563C44.0794 26.0106 43.5916 26.4326 43.0754 26.8185L43.3747 27.219ZM46.2005 24.4003L46.6002 24.7007C47.0144 24.1495 47.3902 23.5678 47.7237 22.9595L47.2852 22.7192L46.8468 22.4788C46.5363 23.045 46.1864 23.5867 45.8007 24.1L46.2005 24.4003ZM48.1186 20.9005L48.5869 21.0756C48.8271 20.4332 49.023 19.7691 49.1709 19.0872L48.6823 18.9812L48.1937 18.8752C48.056 19.5098 47.8737 20.1277 47.6502 20.7255L48.1186 20.9005ZM48.9652 17.0009L49.464 17.0361C49.4882 16.6937 49.5005 16.3481 49.5005 15.9998H49.0005H48.5005C48.5005 16.3246 48.489 16.6467 48.4665 16.9656L48.9652 17.0009ZM49.0005 15.9998H49.5005C49.5005 15.6168 49.4856 15.2372 49.4564 14.8615L48.9579 14.9003L48.4594 14.939C48.4866 15.2889 48.5005 15.6427 48.5005 15.9998H49.0005ZM48.6166 12.7301L49.1029 12.6138C48.9245 11.8682 48.6885 11.1451 48.4 10.4492L47.9381 10.6408L47.4762 10.8323C47.7448 11.4798 47.9643 12.1527 48.1303 12.8465L48.6166 12.7301ZM46.9392 8.68401L47.3652 8.42235C46.9668 7.77352 46.5187 7.15851 46.0264 6.5826L45.6463 6.9075L45.2663 7.23241C45.7249 7.76883 46.1421 8.34156 46.5131 8.94566L46.9392 8.68401ZM44.0928 5.35396L44.4177 4.97391C43.8417 4.48157 43.2267 4.03352 42.5779 3.63507L42.3162 4.06115L42.0546 4.48722C42.6587 4.8582 43.2314 5.27544 43.7679 5.73402L44.0928 5.35396ZM40.3594 3.06223L40.551 2.60037C39.8552 2.31181 39.132 2.07584 38.3865 1.89745L38.2701 2.38372L38.1537 2.86999C38.8475 3.03599 39.5204 3.25556 40.1679 3.52409L40.3594 3.06223ZM36.1 2.04233L36.1387 1.54384C35.7631 1.51464 35.3835 1.49977 35.0005 1.49976L35.0005 1.99976L35.0005 2.49976C35.3576 2.49977 35.7113 2.51363 36.0612 2.54083L36.1 2.04233ZM35.0005 1.99976L35.0005 0.999756H35.0005V1.99976ZM36.9634 29.8621L35.9653 29.9243L36.0326 31.0025L37.1024 30.8524L36.9634 29.8621ZM21.2915 13.1433L20.3123 12.9403L20.0928 13.9991L21.1655 14.1353L21.2915 13.1433ZM35.0005 1.99976V0.999756C34.6567 0.999756 34.3156 1.01133 33.9773 1.03414L34.0446 2.03188L34.1119 3.02961C34.4054 3.00982 34.7017 2.99976 35.0005 2.99976V1.99976ZM32.1519 2.28974L31.9495 1.31044C31.2746 1.44995 30.6161 1.63479 29.9776 1.86165L30.3124 2.80395L30.6471 3.74625C31.1999 3.54987 31.7699 3.38984 32.3544 3.26904L32.1519 2.28974ZM28.5606 3.56547L28.1 2.67786C27.4916 2.99357 26.9077 3.34966 26.3518 3.74253L26.929 4.55917L27.5061 5.3758C27.9881 5.03517 28.4942 4.72657 29.0212 4.45307L28.5606 3.56547ZM25.4474 5.76513L24.765 5.03421C24.2662 5.49992 23.7992 5.99927 23.3677 6.52868L24.1428 7.16052L24.9179 7.79236C25.2922 7.3332 25.6972 6.90004 26.1299 6.49605L25.4474 5.76513ZM23.0392 8.71991L22.1855 8.19916C21.8313 8.77971 21.5155 9.38632 21.2414 10.0155L22.1583 10.4148L23.0751 10.8141C23.3124 10.2693 23.586 9.7438 23.8929 9.24066L23.0392 8.71991ZM21.5177 12.2143L20.5547 11.9445C20.463 12.2721 20.382 12.6042 20.3123 12.9403L21.2915 13.1433L22.2707 13.3463C22.331 13.0552 22.4011 12.7677 22.4806 12.4841L21.5177 12.2143ZM21.2915 13.1433L21.1655 14.1353C21.4905 14.1766 21.8126 14.2271 22.1316 14.2865L22.3146 13.3034L22.4976 12.3202C22.1409 12.2539 21.7808 12.1974 21.4175 12.1513L21.2915 13.1433ZM24.323 13.7989L24.0276 14.7543C24.6537 14.9478 25.2644 15.1766 25.8573 15.4384L26.2611 14.5236L26.665 13.6087C26.0018 13.316 25.3187 13.0601 24.6183 12.8435L24.323 13.7989ZM28.1024 15.4669L27.5959 16.3291C28.1591 16.66 28.7017 17.0224 29.2212 17.414L29.8232 16.6155L30.4251 15.817C29.8448 15.3795 29.2385 14.9745 28.6089 14.6047L28.1024 15.4669ZM31.4014 17.9534L30.7122 18.678C31.1845 19.1272 31.6311 19.6033 32.0493 20.1039L32.8167 19.4626L33.584 18.8214C33.1168 18.2623 32.6181 17.7306 32.0906 17.2288L31.4014 17.9534ZM34.0504 21.1236L33.2148 21.6729C33.5718 22.216 33.8984 22.7807 34.1924 23.3646L35.0856 22.9149L35.9788 22.4652C35.6501 21.8124 35.285 21.1812 34.886 20.5743L34.0504 21.1236ZM35.9076 24.8133L34.9685 25.157C35.191 25.7649 35.3797 26.389 35.5324 27.0272L36.5049 26.7945L37.4775 26.5617C37.3066 25.8479 37.0955 25.1497 36.8467 24.4697L35.9076 24.8133ZM36.8694 28.8307L35.8765 28.95C35.9152 29.272 35.9449 29.5969 35.9653 29.9243L36.9634 29.8621L37.9614 29.7998C37.9386 29.4342 37.9055 29.0713 37.8623 28.7115L36.8694 28.8307ZM36.9634 29.8621L37.1024 30.8524C37.4588 30.8023 37.8112 30.7398 38.1592 30.6652L37.9495 29.6874L37.7399 28.7096C37.4385 28.7742 37.1332 28.8284 36.8244 28.8718L36.9634 29.8621ZM39.8702 29.1283L40.2181 30.0659C40.8929 29.8155 41.5447 29.518 42.1695 29.1775L41.6909 28.2995L41.2123 27.4214C40.671 27.7164 40.1066 27.974 39.5224 28.1908L39.8702 29.1283ZM43.3747 27.219L43.9734 28.0199C44.5468 27.5913 45.0884 27.1227 45.5942 26.6182L44.888 25.9103L44.1818 25.2023C43.743 25.6399 43.2732 26.0463 42.776 26.418L43.3747 27.219ZM46.2005 24.4003L46.9999 25.001C47.4283 24.4309 47.8171 23.8292 48.1621 23.1999L47.2852 22.7192L46.4084 22.2384C46.1094 22.7837 45.7725 23.3052 45.401 23.7996L46.2005 24.4003ZM48.1186 20.9005L49.0553 21.2507C49.3038 20.5859 49.5065 19.8988 49.6596 19.1932L48.6823 18.9812L47.705 18.7692C47.5725 19.3801 47.397 19.9749 47.1819 20.5504L48.1186 20.9005ZM48.9652 17.0009L49.9628 17.0714C49.9878 16.7173 50.0005 16.3599 50.0005 15.9998H49.0005H48.0005C48.0005 16.3128 47.9894 16.6232 47.9677 16.9304L48.9652 17.0009ZM49.0005 15.9998H50.0005C50.0005 15.6038 49.9851 15.2113 49.9549 14.8228L48.9579 14.9003L47.9609 14.9777C47.9871 15.3148 48.0005 15.6556 48.0005 15.9998H49.0005ZM48.6166 12.7301L49.5891 12.4974C49.4046 11.726 49.1604 10.9777 48.8618 10.2577L47.9381 10.6408L47.0144 11.0239C47.2729 11.6472 47.4843 12.295 47.6441 12.9628L48.6166 12.7301ZM46.9392 8.68401L47.7913 8.1607C47.3791 7.4895 46.9157 6.85336 46.4064 6.25769L45.6463 6.9075L44.8862 7.55731C45.3279 8.07399 45.7298 8.62559 46.087 9.20732L46.9392 8.68401ZM44.0928 5.35396L44.7426 4.59386C44.1469 4.08463 43.5107 3.62118 42.8395 3.209L42.3162 4.06115L41.7929 4.9133C42.3747 5.27054 42.9263 5.67238 43.443 6.11407L44.0928 5.35396ZM40.3594 3.06223L40.7425 2.13851C40.0225 1.83993 39.2742 1.59577 38.5028 1.41118L38.2701 2.38372L38.0374 3.35627C38.7052 3.51607 39.353 3.72744 39.9764 3.98595L40.3594 3.06223ZM36.1 2.04233L36.1775 1.04534C35.7889 1.01514 35.3964 0.999769 35.0005 0.999756L35.0005 1.99976L35.0005 2.99976C35.3446 2.99977 35.6854 3.01313 36.0225 3.03933L36.1 2.04233Z" fill="white" mask="url(#path-2-inside-1_1317_6293)"/>
</g>
<defs>
<filter id="filter0_d_1317_6293" x="0.320998" y="13.726" width="37.3576" height="37.3576" filterUnits="userSpaceOnUse" color-interpolation-filters="sRGB">
<feFlood flood-opacity="0" result="BackgroundImageFix"/>
<feColorMatrix in="SourceAlpha" type="matrix" values="0 0 0 0 0 0 0 0 0 0 0 0 0 0 0 0 0 0 127 0" result="hardAlpha"/>
<feOffset dy="1.07153"/>
<feGaussianBlur stdDeviation="1.33941"/>
<feComposite in2="hardAlpha" operator="out"/>
<feColorMatrix type="matrix" values="0 0 0 0 0 0 0 0 0 0 0 0 0 0 0 0 0 0 0.25 0"/>
<feBlend mode="normal" in2="BackgroundImageFix" result="effect1_dropShadow_1317_6293"/>
<feBlend mode="normal" in="SourceGraphic" in2="effect1_dropShadow_1317_6293" result="shape"/>
</filter>
<filter id="filter1_d_1317_6293" x="18.5854" y="0.376092" width="33.1212" height="33.2745" filterUnits="userSpaceOnUse" color-interpolation-filters="sRGB">
<feFlood flood-opacity="0" result="BackgroundImageFix"/>
<feColorMatrix in="SourceAlpha" type="matrix" values="0 0 0 0 0 0 0 0 0 0 0 0 0 0 0 0 0 0 127 0" result="hardAlpha"/>
<feOffset dy="1.08244"/>
<feGaussianBlur stdDeviation="1.35305"/>
<feComposite in2="hardAlpha" operator="out"/>
<feColorMatrix type="matrix" values="0 0 0 0 0 0 0 0 0 0 0 0 0 0 0 0 0 0 0.25 0"/>
<feBlend mode="normal" in2="BackgroundImageFix" result="effect1_dropShadow_1317_6293"/>
<feBlend mode="normal" in="SourceGraphic" in2="effect1_dropShadow_1317_6293" result="shape"/>
</filter>
</defs>
</svg>
