<svg width="36" height="35" viewBox="0 0 36 35" fill="none" xmlns="http://www.w3.org/2000/svg">
<g filter="url(#filter0_i_223_154)">
<path d="M22.068 11.0734C21.6141 10.485 20.9964 10.0452 20.2932 9.80981L18.4776 9.21706C18.3382 9.16724 18.2175 9.07531 18.1322 8.9539C18.047 8.83249 18.0012 8.68755 18.0012 8.53897C18.0012 8.39039 18.047 8.24545 18.1322 8.12404C18.2175 8.00263 18.3382 7.91071 18.4776 7.86088L20.2932 7.26813C20.8305 7.08182 21.3184 6.77505 21.72 6.3711C22.1216 5.96715 22.4263 5.47665 22.6109 4.93682L22.6254 4.89183L23.2157 3.06992C23.2647 2.92902 23.3562 2.80694 23.4774 2.72055C23.5986 2.63417 23.7436 2.58777 23.8922 2.58777C24.0409 2.58777 24.1858 2.63417 24.3071 2.72055C24.4283 2.80694 24.5198 2.92902 24.5688 3.06992L25.1578 4.89183C25.3419 5.44561 25.652 5.94869 26.0634 6.36116C26.4749 6.77364 26.9764 7.08418 27.5282 7.26813L29.3425 7.86088L29.3794 7.87014C29.5188 7.91997 29.6394 8.01189 29.7247 8.1333C29.81 8.25471 29.8558 8.39965 29.8558 8.54823C29.8558 8.69681 29.81 8.84176 29.7247 8.96316C29.6394 9.08457 29.5188 9.1765 29.3794 9.22632L27.5637 9.81907C27.0122 10.0032 26.511 10.3138 26.0998 10.7263C25.6885 11.1388 25.3787 11.6417 25.1947 12.1954L24.6044 14.0173L24.5873 14.0623C24.5303 14.1954 24.4347 14.3082 24.3129 14.3859C24.1911 14.4636 24.0488 14.5025 23.9046 14.4976C23.7604 14.4928 23.621 14.4443 23.5047 14.3586C23.3883 14.2729 23.3005 14.154 23.2525 14.0173L22.6623 12.1954C22.5304 11.7899 22.3298 11.4103 22.0693 11.0734M32.2083 16.1025L31.199 15.7744C30.8927 15.6716 30.6145 15.4986 30.3863 15.2692C30.1581 15.0398 29.9861 14.7602 29.884 14.4526L29.5546 13.4417C29.5274 13.3636 29.4766 13.2959 29.4093 13.248C29.342 13.2001 29.2616 13.1743 29.1791 13.1743C29.0966 13.1743 29.0162 13.2001 28.9489 13.248C28.8817 13.2959 28.8309 13.3636 28.8036 13.4417L28.4768 14.4526C28.3766 14.7583 28.2075 15.0366 27.9826 15.2658C27.7577 15.4951 27.4832 15.6691 27.1803 15.7744L26.1724 16.1025C26.0945 16.1299 26.0271 16.1809 25.9794 16.2484C25.9317 16.316 25.9061 16.3968 25.9061 16.4796C25.9061 16.5624 25.9317 16.6432 25.9794 16.7107C26.0271 16.7783 26.0945 16.8293 26.1724 16.8567L27.1803 17.1861C27.4875 17.289 27.7665 17.4624 27.9952 17.6925C28.224 17.9227 28.3961 18.2032 28.4979 18.5119L28.8247 19.5227C28.852 19.6009 28.9027 19.6686 28.97 19.7165C29.0373 19.7644 29.1177 19.7901 29.2002 19.7901C29.2827 19.7901 29.3631 19.7644 29.4304 19.7165C29.4976 19.6686 29.5484 19.6009 29.5757 19.5227L29.9038 18.5119C30.006 18.2041 30.1782 17.9244 30.4066 17.695C30.6351 17.4656 30.9136 17.2927 31.2201 17.1901L32.228 16.862C32.3059 16.8346 32.3733 16.7836 32.421 16.716C32.4687 16.6485 32.4943 16.5677 32.4943 16.4849C32.4943 16.4021 32.4687 16.3213 32.421 16.2537C32.3733 16.1862 32.3059 16.1352 32.228 16.1078L32.2083 16.1025ZM16.6817 5.23716C17.9426 5.23716 19.1627 5.41446 20.3183 5.74656C19.9778 5.95558 19.4249 6.157 19.0867 6.3711C18.7485 6.5852 17.2258 7.22049 16.6817 7.22049C14.5292 7.13512 12.8418 7.6842 10.9871 8.78449C9.13241 9.88478 7.63305 11.4989 6.66878 13.4332C5.70451 15.3676 5.31625 17.5402 5.55054 19.6905C5.78483 21.8409 6.63173 23.8778 7.98972 25.557C9.3477 27.2363 11.1591 28.4866 13.2069 29.1581C15.2547 29.8297 17.4518 29.8939 19.5351 29.3432C21.6183 28.7925 23.4991 27.6501 24.9521 26.0531C26.4051 24.456 27.5228 22.2538 27.8813 20.1208C28.2107 20.7823 28.4979 21.125 29.1462 21.1793C29.3087 21.1784 29.4571 21.1603 29.5915 21.125C28.3662 27.1584 23.0523 31.6993 16.6817 31.6993C9.40457 31.6993 3.50568 25.7757 3.50568 18.4682C3.50568 11.1607 9.40457 5.23716 16.6817 5.23716Z" fill="#536AEE"/>
<path d="M16.6817 13.1745C17.191 13.1745 17.604 13.5892 17.604 14.1006V17.5407H21.0298C21.5391 17.5407 21.952 17.9554 21.9521 18.4669C21.9521 18.9784 21.5391 19.393 21.0298 19.3931H17.604V22.8331C17.604 23.3446 17.191 23.7593 16.6817 23.7593C16.1724 23.7592 15.7594 23.3446 15.7594 22.8331V19.3931H12.3336C11.8243 19.3929 11.4113 18.9783 11.4113 18.4669C11.4113 17.9555 11.8244 17.5408 12.3336 17.5407H15.7594V14.1006C15.7594 13.5892 16.1724 13.1746 16.6817 13.1745Z" fill="#536AEE"/>
</g>
<defs>
<filter id="filter0_i_223_154" x="0.803345" y="-3.56177" width="34.3933" height="38.3933" filterUnits="userSpaceOnUse" color-interpolation-filters="sRGB">
<feFlood flood-opacity="0" result="BackgroundImageFix"/>
<feBlend mode="normal" in="SourceGraphic" in2="BackgroundImageFix" result="shape"/>
<feColorMatrix in="SourceAlpha" type="matrix" values="0 0 0 0 0 0 0 0 0 0 0 0 0 0 0 0 0 0 127 0" result="hardAlpha"/>
<feOffset dy="-4"/>
<feGaussianBlur stdDeviation="8"/>
<feComposite in2="hardAlpha" operator="arithmetic" k2="-1" k3="1"/>
<feColorMatrix type="matrix" values="0 0 0 0 1 0 0 0 0 1 0 0 0 0 1 0 0 0 0.2 0"/>
<feBlend mode="normal" in2="shape" result="effect1_innerShadow_223_154"/>
</filter>
</defs>
</svg>
