<svg width="32" height="32" viewBox="0 0 32 32" fill="none" xmlns="http://www.w3.org/2000/svg">
<path d="M8.6665 17.3333L9.71245 19.4252C10.0664 20.1332 10.2434 20.4871 10.4799 20.7939C10.6897 21.0661 10.9337 21.3101 11.2059 21.5199C11.5127 21.7564 11.8666 21.9334 12.5746 22.2873L14.6665 23.3333L12.5746 24.3792C11.8666 24.7332 11.5127 24.9102 11.2059 25.1467C10.9337 25.3565 10.6897 25.6005 10.4799 25.8727C10.2434 26.1794 10.0664 26.5334 9.71245 27.2414L8.6665 29.3333L7.62056 27.2414C7.26657 26.5334 7.08958 26.1794 6.85313 25.8727C6.64331 25.6005 6.39929 25.3565 6.1271 25.1467C5.82035 24.9102 5.46636 24.7332 4.75839 24.3792L2.6665 23.3333L4.75839 22.2873C5.46636 21.9334 5.82035 21.7564 6.1271 21.5199C6.39929 21.3101 6.64331 21.0661 6.85313 20.7939C7.08958 20.4871 7.26657 20.1332 7.62056 19.4252L8.6665 17.3333Z" stroke="#A9A0A0" stroke-width="2" stroke-linecap="round" stroke-linejoin="round"/>
<path d="M19.9998 2.66663L21.5713 6.75252C21.9473 7.73016 22.1354 8.21898 22.4277 8.63015C22.6868 8.99456 23.0052 9.31295 23.3696 9.57207C23.7808 9.86444 24.2696 10.0524 25.2473 10.4285L29.3332 12L25.2473 13.5715C24.2696 13.9475 23.7808 14.1355 23.3696 14.4278C23.0052 14.687 22.6868 15.0054 22.4277 15.3698C22.1354 15.7809 21.9474 16.2698 21.5713 17.2474L19.9998 21.3333L18.4283 17.2474C18.0523 16.2698 17.8643 15.7809 17.572 15.3698C17.3128 15.0054 16.9944 14.687 16.63 14.4278C16.2189 14.1355 15.73 13.9475 14.7524 13.5715L10.6665 12L14.7524 10.4285C15.73 10.0524 16.2189 9.86444 16.63 9.57207C16.9944 9.31295 17.3128 8.99456 17.572 8.63015C17.8643 8.21898 18.0523 7.73016 18.4283 6.75252L19.9998 2.66663Z" stroke="#A9A0A0" stroke-width="2" stroke-linecap="round" stroke-linejoin="round"/>
</svg>
